<?xml version="1.0" encoding="utf-8"?>
<!-- Generator: Adobe Illustrator 25.0.0, SVG Export Plug-In . SVG Version: 6.00 Build 0)  -->
<svg version="1.1" id="Layer_1" xmlns="http://www.w3.org/2000/svg" xmlns:xlink="http://www.w3.org/1999/xlink" x="0px" y="0px"
	 viewBox="0 0 98.1 98.1" style="enable-background:new 0 0 98.1 98.1;" xml:space="preserve">
<style type="text/css">
	.st0{fill:#FFFFFF;}
</style>
<g>
	<path class="st0" d="M49.1,0C21.7,0,0,21.9,0,49c0,27.2,21.7,49.1,49,49.1c27.1,0,49.1-21.7,49.1-49.1C98.1,21.9,76.2,0,49.1,0z
		 M6.2,49C6.2,25.4,25.3,6.4,49,6.4c23.6,0,42.6,19.1,42.6,42.6c0,23.7-19.1,42.7-42.6,42.7C25.3,91.7,6.2,72.7,6.2,49z"/>
	<path class="st0" d="M32.5,45.8c3.8,0,6.7-5,6.7-11.1c0-5.9-2.9-10.9-6.7-10.9c-3.8,0-6.7,5-6.7,10.9
		C25.8,40.9,28.7,45.8,32.5,45.8z"/>
	<path class="st0" d="M65.2,45.8c3.8,0,6.7-5,6.7-11.1c0-5.9-2.9-10.9-6.7-10.9c-3.8,0-6.7,5-6.7,10.9
		C58.5,40.9,61.4,45.8,65.2,45.8z"/>
	<path class="st0" d="M78.6,48.8c-1,17.1-13.4,30.4-29.1,30.4c-15.9,0-28.3-13.3-29.2-30.4H16C17,68.6,31.3,84,49.6,84
		c18,0,32.5-15.5,33.6-35.2H78.6z"/>
	<polygon class="st0" points="40.7,58.7 47.3,52.1 47.3,69.5 50.9,69.5 50.9,69.4 50.9,52.1 57.5,58.7 60.2,56.1 49.1,44.9 38,56.1 
			"/>
</g>
</svg>
