<svg width="81" height="81" viewBox="0 0 81 81" fill="none" xmlns="http://www.w3.org/2000/svg">
<path d="M0.280029 40.3902C0.280029 62.7202 18.1 80.5402 40.43 80.5402C62.65 80.5402 80.58 62.7202 80.58 40.3902C80.58 18.1702 62.65 0.240234 40.43 0.240234C18.1 0.240234 0.280029 18.1702 0.280029 40.3902ZM75.3 40.3902C75.3 59.7502 59.68 75.3702 40.43 75.3702C21.07 75.3702 5.45003 59.7502 5.45003 40.3902C5.45003 21.1402 21.07 5.52023 40.43 5.52023C59.68 5.52023 75.3 21.1402 75.3 40.3902ZM21.4 28.7302C21.4 33.7902 23.82 37.8602 26.9 37.8602C29.98 37.8602 32.4 33.7902 32.4 28.7302C32.4 23.8902 29.98 19.8202 26.9 19.8202C23.82 19.8202 21.4 23.8902 21.4 28.7302ZM48.13 28.7302C48.13 33.7902 50.55 37.8602 53.63 37.8602C56.71 37.8602 59.13 33.7902 59.13 28.7302C59.13 23.8902 56.71 19.8202 53.63 19.8202C50.55 19.8202 48.13 23.8902 48.13 28.7302ZM13.37 40.2802C14.14 56.4502 25.91 69.1002 40.87 69.1002C55.61 69.1002 67.49 56.4502 68.37 40.2802H64.63C63.86 54.2502 53.63 65.1402 40.87 65.1402C27.89 65.1402 17.66 54.2502 17 40.2802H13.37Z" fill="black"/>
<path d="M42.66 57.1382V42.9682L48.016 48.3242L50.226 46.1142L41.1 36.9882L31.974 46.1142L34.184 48.3242L39.54 42.9682V57.1382H42.66Z" fill="black"/>
</svg>
